HIERARCHY
ROOT Hips
{
	OFFSET 0.00000 0.00000 0.00000
	CHANNELS 6 Xposition Yposition Zposition Zrotation Yrotation Xrotation 
	JOINT LHipJoint
	{
		OFFSET 0 0 0
		CHANNELS 3 Zrotation Yrotation Xrotation
		JOINT LeftUpLeg
		{
			OFFSET 1.75344 -1.53157 0.77399
			CHANNELS 3 Zrotation Yrotation Xrotation
			JOINT LeftLeg
			{
				OFFSET 2.25415 -6.19323 0.00000
				CHANNELS 3 Zrotation Yrotation Xrotation
				JOINT LeftFoot
				{
					OFFSET 2.30342 -6.32861 0.00000
					CHANNELS 3 Zrotation Yrotation Xrotation
					JOINT LeftToeBase
					{
						OFFSET 0.10958 -0.30108 1.49206
						CHANNELS 3 Zrotation Yrotation Xrotation
						End Site
						{
							OFFSET 0.00000 -0.00000 0.77783
						}
					}
				}
			}
		}
	}
	JOINT RHipJoint
	{
		OFFSET 0 0 0
		CHANNELS 3 Zrotation Yrotation Xrotation
		JOINT RightUpLeg
		{
			OFFSET -1.81912 -1.53156 0.77399
			CHANNELS 3 Zrotation Yrotation Xrotation
			JOINT RightLeg
			{
				OFFSET -2.22882 -6.12365 0.00000
				CHANNELS 3 Zrotation Yrotation Xrotation
				JOINT RightFoot
				{
					OFFSET -2.21943 -6.09785 0.00000
					CHANNELS 3 Zrotation Yrotation Xrotation
					JOINT RightToeBase
					{
						OFFSET -0.18931 -0.52012 1.59379
						CHANNELS 3 Zrotation Yrotation Xrotation
						End Site
						{
							OFFSET -0.00000 -0.00000 0.84686
						}
					}
				}
			}
		}
	}
	JOINT LowerBack
	{
		OFFSET 0 0 0
		CHANNELS 3 Zrotation Yrotation Xrotation
		JOINT Spine
		{
			OFFSET -0.00200 1.66634 -0.14248
			CHANNELS 3 Zrotation Yrotation Xrotation
			JOINT Spine1
			{
				OFFSET -0.00875 1.64542 0.09514
				CHANNELS 3 Zrotation Yrotation Xrotation
				JOINT Neck
				{
					OFFSET 0 0 0
					CHANNELS 3 Zrotation Yrotation Xrotation
					JOINT Neck1
					{
						OFFSET 0.02257 1.59605 0.00839
						CHANNELS 3 Zrotation Yrotation Xrotation
						JOINT Head
						{
							OFFSET -0.10214 1.57530 -0.23335
							CHANNELS 3 Zrotation Yrotation Xrotation
							End Site
							{
								OFFSET -0.03588 1.60717 -0.08062
							}
						}
					}
				}
				JOINT LeftShoulder
				{
					OFFSET 0 0 0
					CHANNELS 3 Zrotation Yrotation Xrotation
					JOINT LeftArm
					{
						OFFSET 2.54983 1.10186 0.40078
						CHANNELS 3 Zrotation Yrotation Xrotation
						JOINT LeftForeArm
						{
							OFFSET 4.28840 -0.00000 0.00000
							CHANNELS 3 Zrotation Yrotation Xrotation
							JOINT LeftHand
							{
								OFFSET 3.06552 -0.00000 -0.00000
								CHANNELS 3 Zrotation Yrotation Xrotation
								JOINT LeftFingerBase
								{
									OFFSET 0 0 0
									CHANNELS 3 Zrotation Yrotation Xrotation
									JOINT LeftHandIndex1
									{
										OFFSET 0.75304 -0.00000 0.00000
										CHANNELS 3 Zrotation Yrotation Xrotation
										End Site
										{
											OFFSET 0.60712 -0.00000 0.00000
										}
									}
								}
								JOINT LThumb
								{
									OFFSET 0 0 0
									CHANNELS 3 Zrotation Yrotation Xrotation
									End Site
									{
										OFFSET 0.61639 -0.00000 0.61639
									}
								}
							}
						}
					}
				}
				JOINT RightShoulder
				{
					OFFSET 0 0 0
					CHANNELS 3 Zrotation Yrotation Xrotation
					JOINT RightArm
					{
						OFFSET -2.60909 1.35448 0.21802
						CHANNELS 3 Zrotation Yrotation Xrotation
						JOINT RightForeArm
						{
							OFFSET -4.52172 -0.00000 -0.00000
							CHANNELS 3 Zrotation Yrotation Xrotation
							JOINT RightHand
							{
								OFFSET -2.89140 -0.00000 0.00000
								CHANNELS 3 Zrotation Yrotation Xrotation
								JOINT RightFingerBase
								{
									OFFSET 0 0 0
									CHANNELS 3 Zrotation Yrotation Xrotation
									JOINT RightHandIndex1
									{
										OFFSET -0.68054 -0.00000 0.00000
										CHANNELS 3 Zrotation Yrotation Xrotation
										End Site
										{
											OFFSET -0.54867 -0.00000 0.00000
										}
									}
								}
								JOINT RThumb
								{
									OFFSET 0 0 0
									CHANNELS 3 Zrotation Yrotation Xrotation
									End Site
									{
										OFFSET -0.55705 -0.00000 0.55705
									}
								}
							}
						}
					}
				}
			}
		}
	}
}
MOTION
Frames: 8
Frame Time: 0.0588235
0.00 0.00 0.00 0 0 0 0 0 0 -21 0 0 0 0 0 0 0 0 0 0 0 0 0 0 21 0 0 0 0 0 0 0 0 0 0 0 0 0 0 0 0 0 0 0 0 0 0 -16 0 0 21 0 0 11 0 0 0 -8 0 0 0 0 0 0 0 0 0 0 0 0 0 0 0 0 0 0 0 0 8 0 0 0 0 0 0 0 0 0 0 0 0 0 0 0 0 0
0.00 0.00 0.00 -182.2410 4.0332 -181.0690 0.0000 0.0000 0.0000 -35.4105 -12.9932 3.0339 1.3005 7.2248 20.3830 1.5503 10.1334 -29.1004 0.9842 -6.3146 -17.6999 0.0000 0.0000 0.0000 15.2253 16.3971 -8.7914 -5.1860 -13.5903 41.6204 -1.0566 -14.8248 -29.7728 -0.9072 -6.0696 16.9864 3.6694 0.1841 5.3644 -1.8356 0.5269 -3.9334 -4.0591 0.0617 -7.0933 -7.0535 -2.0139 -4.2781 5.1388 -2.0308 17.5135 2.7141 -0.7148 6.1292 -0.0000 -0.0000 0.0000 -84.6757 11.7724 37.2327 20.1118 -30.7768 -5.5885 -0.0000 -0.0000 13.8362 2.2377 -35.5754 -1.3023 -7.1250 0.0000 -0.0000 -16.6595 -4.3151 18.6465 -0.0000 -0.0000 0.0000 85.5730 -14.8376 50.2136 -19.0019 29.4210 -5.0318 0.0000 0.0000 2.3812 -25.6015 -55.2638 21.4925 7.1250 -0.0000 -0.0000 78.2508 -81.4462 -69.6583
0.00 0.00 0.00 -177.7480 -6.9305 -179.6110 0.0000 0.0000 0.0000 -25.5621 -7.9254 17.9202 1.4741 7.6719 21.7218 0.0534 7.1508 -11.3467 2.7627 -10.3007 -29.9560 0.0000 0.0000 0.0000 27.7093 22.9476 -6.4424 -1.1579 -6.8317 19.2177 1.5169 -22.6733 -17.4751 -0.6856 -5.2937 14.7481 -6.3851 -1.7790 1.0813 -0.4663 -2.8116 -4.1365 3.2311 -1.2415 -4.6324 -5.6928 -3.6223 -2.1487 11.6357 -8.9532 20.4312 4.0161 -4.6855 7.3333 -0.0000 -0.0000 0.0000 -84.5012 15.7896 39.8601 18.7118 -29.0590 -4.8901 -0.0000 -0.0000 17.4172 10.0987 -37.8783 -6.2407 -7.1250 0.0000 -0.0000 -12.6987 -7.5060 14.5895 -0.0000 -0.0000 0.0000 84.0472 -11.1823 49.7522 -18.8700 29.2568 -4.9671 0.0000 0.0000 12.0240 -8.0698 -52.2136 6.3934 7.1250 -0.0000 -0.0000 65.9324 -73.9950 -50.0001
0.00 0.00 0.00 -176.1920 -7.8195 -180.8280 0.0000 0.0000 0.0000 -17.8419 -1.9542 9.6979 4.0523 12.2297 36.5495 -0.0129 3.0521 1.3275 1.1949 -6.9361 -19.5262 0.0000 0.0000 0.0000 32.8720 18.2180 -1.0270 -0.8617 -5.9193 16.5504 1.2085 -20.8212 -17.0405 -1.0399 -6.4856 18.2000 -5.9479 -1.9481 1.6316 -0.5789 -3.0776 -4.2831 2.9107 -1.3760 -5.0981 -5.1803 -3.6204 -2.6484 11.5466 -8.9967 20.7232 3.8811 -4.6562 7.5011 -0.0000 0.0000 0.0000 -83.2252 15.8106 36.9618 18.2583 -28.4866 -4.6718 -0.0000 -0.0000 16.3206 2.0790 -34.9315 -1.1908 -7.1250 0.0000 -0.0000 -16.7213 -3.6843 18.5481 -0.0000 0.0000 0.0000 84.1480 -11.6676 50.2978 -18.8066 29.1776 -4.9362 0.0000 0.0000 11.6673 -3.3718 -54.5134 2.7466 7.1250 -0.0000 -0.0000 75.6290 -72.9278 -57.7401
0.00 0.00 0.00 -173.0700 -9.7497 -181.7630 0.0000 0.0000 0.0000 -10.6684 -2.2354 -0.7742 8.6168 16.5547 54.7553 0.3263 3.1560 10.1657 0.2732 -3.3624 -9.2894 0.0000 0.0000 0.0000 37.8091 13.8832 3.3041 -0.3509 -3.8060 10.5315 1.1692 -20.3458 -16.2996 -1.4002 -7.4853 21.1614 -4.4763 -2.3532 2.9357 0.3719 -3.5180 -4.1484 3.1637 -1.5939 -5.6736 -5.5311 -3.8480 -2.7209 12.2339 -9.2644 20.0840 4.1439 -4.7415 7.3767 -0.0000 0.0000 0.0000 -83.3210 14.5371 35.5402 17.8635 -27.9821 -4.4850 -0.0000 -0.0000 17.2389 3.4737 -34.3597 -1.9621 -7.1250 0.0000 -0.0000 -15.9582 -3.2736 17.5214 -0.0000 0.0000 0.0000 82.9902 -10.9932 51.8197 -18.8748 29.2628 -4.9695 0.0000 0.0000 11.5661 -4.9579 -54.3235 4.0308 7.1250 -0.0000 -0.0000 74.3819 -73.4554 -57.1726
0.00 0.00 0.00 -170.6010 -12.0868 -182.7840 0.0000 0.0000 0.0000 -6.3536 -6.5772 -14.5886 14.6343 19.2952 74.1325 -0.2734 9.8432 0.0599 0.2217 -3.0311 -8.3652 0.0000 0.0000 0.0000 41.6105 8.8455 4.5214 -0.2583 -3.2697 9.0306 1.0206 -19.1459 -15.4678 -1.5103 -7.7614 21.9916 -4.1148 -2.4067 5.1715 0.9757 -3.5798 -3.8430 3.7105 -1.5794 -6.6106 -5.6504 -4.5742 -2.2895 13.7188 -10.3884 18.7376 4.5652 -5.2257 7.0609 0.0000 -0.0000 0.0000 -82.9141 11.4995 37.6734 18.0386 -28.2066 -4.5675 -0.0000 -0.0000 16.3503 6.1248 -34.5024 -3.4783 -7.1250 0.0000 -0.0000 -14.5399 -3.7030 15.9576 0.0000 -0.0000 0.0000 82.6247 -10.0700 51.2339 -18.7108 29.0577 -4.8896 0.0000 0.0000 12.2135 -4.9259 -54.8717 4.0320 7.1250 -0.0000 -0.0000 76.2182 -73.5596 -59.0430
0.00 0.00 0.00 -170.1990 -10.2950 -182.6080 0.0000 0.0000 0.0000 -7.4366 -16.7417 -27.5911 14.8102 19.3416 74.6642 0.4606 7.0305 -17.2889 0.9575 -6.2309 -17.4559 0.0000 0.0000 0.0000 43.2463 6.0952 2.4824 -0.9344 -6.1573 17.2416 -0.1471 -14.0565 -21.5486 -0.7381 -5.4885 15.3072 -3.1779 -1.3164 6.0013 0.7569 -2.0584 -3.6343 2.8261 -0.8617 -7.0399 -6.5060 -4.9343 -1.9072 14.2802 -10.6445 17.7072 4.8867 -5.3563 6.7606 -0.0000 0.0000 0.0000 -81.9782 8.4234 42.3195 20.9800 -31.8050 -6.0394 -0.0000 -0.0000 10.7449 11.0468 -36.1118 -6.5636 -7.1250 0.0000 -0.0000 -12.0228 -5.9332 13.4879 -0.0000 0.0000 0.0000 82.9234 -10.2733 52.3812 -19.2322 29.7062 -5.1454 0.0000 0.0000 14.4038 -4.4716 -52.0030 3.5265 7.1250 -0.0000 -0.0000 67.2812 -72.6055 -49.6390
0.00 0.00 0.00 -171.6620 -5.2177 -182.2820 0.0000 0.0000 0.0000 -9.9101 -20.5952 -30.4259 9.1489 16.9026 56.6038 0.8190 8.0319 -21.8285 1.5455 -7.8472 -22.2509 0.0000 0.0000 0.0000 42.4481 5.1367 8.0604 -0.6871 -5.2996 14.7651 -0.2173 -12.9286 -20.8492 -0.4720 -4.4061 12.2220 -1.5471 0.2222 5.6628 0.1555 0.1472 -3.0112 1.0159 0.1289 -6.3217 -6.4523 -4.3297 -1.9129 12.6740 -8.7944 15.9664 4.5082 -4.4304 5.9310 0.0000 0.0000 0.0000 -83.7364 7.4894 36.4207 20.6399 -31.4056 -5.8612 -0.0000 -0.0000 11.4903 9.7125 -36.0942 -5.7577 -7.1250 0.0000 -0.0000 -12.7324 -5.7169 14.2789 0.0000 0.0000 0.0000 84.3764 -10.6905 51.5558 -18.3006 28.5403 -4.6920 0.0000 0.0000 15.6307 -6.2642 -52.8317 4.9990 7.1250 -0.0000 -0.0000 68.9053 -73.5315 -52.1691
